<?xml version="1.0" encoding="UTF-8" standalone="no"?>
<!-- Created with Inkscape (http://www.inkscape.org/) -->

<svg
   width="578.21167mm"
   height="389.89215mm"
   viewBox="0 0 578.21165 389.89216"
   version="1.1"
   id="svg204"
   inkscape:version="1.1.2 (76b9e6a115, 2022-02-25)"
   sodipodi:docname="рисунок.svg"
   xmlns:inkscape="http://www.inkscape.org/namespaces/inkscape"
   xmlns:sodipodi="http://sodipodi.sourceforge.net/DTD/sodipodi-0.dtd"
   xmlns="http://www.w3.org/2000/svg"
   xmlns:svg="http://www.w3.org/2000/svg">
  <sodipodi:namedview
     id="namedview206"
     pagecolor="#ffffff"
     bordercolor="#666666"
     borderopacity="1.0"
     inkscape:pageshadow="2"
     inkscape:pageopacity="0.0"
     inkscape:pagecheckerboard="0"
     inkscape:document-units="mm"
     showgrid="false"
     inkscape:zoom="0.31723122"
     inkscape:cx="1145.8519"
     inkscape:cy="748.66529"
     inkscape:window-width="1366"
     inkscape:window-height="703"
     inkscape:window-x="0"
     inkscape:window-y="0"
     inkscape:window-maximized="1"
     inkscape:current-layer="layer1" />
  <defs
     id="defs201" />
  <g
     inkscape:label="Слой 1"
     inkscape:groupmode="layer"
     id="layer1"
     transform="translate(188.21611,-12.808657)">
    <rect
       style="fill:#f6ff57;fill-opacity:1;stroke-width:0.165739"
       id="rect999"
       width="148.35789"
       height="54.028442"
       x="34.355598"
       y="163.04706" />
    <circle
       style="fill:#f6ff57;fill-opacity:1;stroke-width:0.192371"
       id="path245"
       cx="63.477001"
       cy="35.34568"
       r="22.537024" />
    <path
       style="fill:#000000;stroke-width:0.192371"
       d="m 60.263628,46.265031 c -0.189431,-0.333078 -0.162558,-2.89838 0.04404,-4.204104 0.391545,-2.474614 1.112237,-4.427628 2.279629,-6.177622 2.044813,-3.065301 4.769096,-5.189874 8.113338,-6.327325 2.031988,-0.691125 2.266752,-0.649987 3.124077,0.547411 0.397286,0.554893 1.154029,1.434089 1.681649,1.95377 l 0.959297,0.944872 -2.781248,1.377741 c -6.296185,3.118915 -10.698991,6.889845 -12.753785,10.923401 -0.315494,0.619319 -0.615643,1.052151 -0.666997,0.961856 z M 70.426047,34.787755 c -1.606033,-1.000435 -1.6127,-2.144728 -0.0173,-2.973043 0.830664,-0.431276 0.249495,-0.540868 -0.781085,-0.147283 -2.502737,0.9558 -1.974811,3.20652 0.781543,3.331969 0.375009,0.01709 0.375438,0.01171 0.01687,-0.211643 z m 0.944974,-2.24904 c 0,-0.300375 -0.124271,-0.499593 -0.33723,-0.540607 -0.380796,-0.07333 -0.628436,0.387289 -0.453415,0.843381 0.183469,0.478114 0.790645,0.245604 0.790645,-0.302774 z M 47.581023,44.56189 c -0.95438,-1.881121 -1.467068,-3.565104 -1.687939,-5.544234 -0.426497,-3.821658 0.592759,-7.34633 3.07135,-10.621005 l 0.982671,-1.298287 -0.235125,-0.980113 c -0.129318,-0.539057 -0.243248,-1.673927 -0.253177,-2.521924 l -0.01805,-1.541819 2.116079,2.9e-5 c 1.702916,2.2e-5 2.367517,0.08611 3.403864,0.440881 1.273228,0.435864 1.301497,0.437035 2.50082,0.103542 1.87831,-0.522298 6.558489,-0.482789 8.234569,0.06951 1.84079,0.606581 3.012479,1.165473 4.520715,2.156368 l 1.346593,0.884707 -2.01989,0.120876 c -2.421785,0.144927 -3.991058,0.421766 -6.01494,1.061108 l -1.51123,0.477395 0.411114,0.696788 c 0.442808,0.750504 0.330854,0.70752 -0.769931,-0.295641 -0.902579,-0.822528 -3.840497,-2.749774 -5.049828,-3.312629 -1.437792,-0.669196 -3.039753,-1.103199 -4.699832,-1.273275 l -1.217693,-0.124758 0.0028,0.747959 c 0.0095,2.500811 1.961629,6.801892 4.389919,9.672236 0.899673,1.063457 0.735415,1.104232 -0.620129,0.15395 l -0.555709,-0.389572 -0.675685,0.7535 c -2.329403,2.597642 -4.178303,6.940566 -4.907043,11.526252 -0.04277,0.269103 -0.266488,-0.02 -0.744334,-0.961849 z m 26.483192,-2.581501 c -0.662812,-0.105316 -0.550924,-0.138907 0.80707,-0.242347 2.308319,-0.175813 4.539211,-1.308895 5.650895,-2.870119 l 0.405582,-0.56958 -0.700554,-0.775428 c -0.626219,-0.693146 -0.694382,-0.871147 -0.642396,-1.677497 0.06645,-1.031241 -0.02625,-1.010396 2.078048,-0.466933 1.681874,0.43436 1.704864,0.506071 0.790245,2.464218 -1.464175,3.134721 -4.689395,4.725508 -8.38889,4.137686 z"
       id="path12" />
    <circle
       style="fill:#000000;fill-opacity:1;stroke-width:0.192371"
       id="path245-6"
       cx="61.823753"
       cy="191.26686"
       r="22.537024" />
    <path
       style="fill:#f6ff57;fill-opacity:1;stroke-width:0.192371"
       d="m 58.610375,202.18622 c -0.18943,-0.33308 -0.162558,-2.89838 0.04404,-4.20411 0.391544,-2.47461 1.112236,-4.42762 2.279628,-6.17762 2.044814,-3.0653 4.769097,-5.18987 8.113338,-6.32732 2.031988,-0.69113 2.266752,-0.64999 3.124078,0.54741 0.397286,0.55489 1.154028,1.43409 1.681649,1.95377 l 0.959297,0.94487 -2.781249,1.37774 c -6.296185,3.11892 -10.698991,6.88985 -12.753785,10.9234 -0.315494,0.61932 -0.615643,1.05215 -0.666996,0.96186 z m 10.16242,-11.47728 c -1.606034,-1.00043 -1.612701,-2.14473 -0.0173,-2.97304 0.830663,-0.43128 0.249494,-0.54087 -0.781085,-0.14728 -2.502737,0.9558 -1.974811,3.20652 0.781543,3.33197 0.375008,0.0171 0.375437,0.0117 0.01687,-0.21165 z m 0.944974,-2.24904 c 0,-0.30037 -0.124271,-0.49959 -0.33723,-0.5406 -0.380796,-0.0733 -0.628437,0.38728 -0.453416,0.84338 0.183469,0.47811 0.790646,0.2456 0.790646,-0.30278 z m -23.789998,12.02318 c -0.954381,-1.88112 -1.467068,-3.56511 -1.687939,-5.54424 -0.426497,-3.82165 0.592759,-7.34633 3.07135,-10.621 l 0.982671,-1.29829 -0.235125,-0.98011 c -0.129319,-0.53906 -0.243248,-1.67393 -0.253177,-2.52193 l -0.01805,-1.54181 2.116079,2e-5 c 1.702916,3e-5 2.367517,0.0861 3.403864,0.44089 1.273229,0.43586 1.301497,0.43703 2.50082,0.10354 1.878311,-0.5223 6.55849,-0.48279 8.234569,0.0695 1.840791,0.60658 3.01248,1.16547 4.520715,2.15636 l 1.346593,0.88471 -2.01989,0.12088 c -2.421785,0.14492 -3.991058,0.42176 -6.014939,1.0611 l -1.511231,0.4774 0.411115,0.69679 c 0.442808,0.7505 0.330853,0.70752 -0.769932,-0.29564 -0.902579,-0.82253 -3.840497,-2.74978 -5.049828,-3.31263 -1.437792,-0.6692 -3.039752,-1.1032 -4.699832,-1.27328 l -1.217692,-0.12476 0.0028,0.74796 c 0.0095,2.50081 1.96163,6.8019 4.389919,9.67224 0.899673,1.06346 0.735415,1.10423 -0.620128,0.15395 l -0.555709,-0.38957 -0.675686,0.7535 c -2.329403,2.59764 -4.178303,6.94056 -4.907043,11.52625 -0.04277,0.2691 -0.266487,-0.02 -0.744333,-0.96185 z m 26.483191,-2.5815 c -0.662812,-0.10532 -0.550923,-0.13891 0.80707,-0.24235 2.308319,-0.17581 4.539212,-1.3089 5.650896,-2.87012 l 0.405581,-0.56958 -0.700554,-0.77543 c -0.626219,-0.69314 -0.694382,-0.87114 -0.642396,-1.6775 0.06645,-1.03124 -0.02625,-1.01039 2.078048,-0.46693 1.681874,0.43436 1.704864,0.50607 0.790246,2.46422 -1.464175,3.13472 -4.689395,4.72551 -8.388891,4.13769 z"
       id="path12-7" />
    <text
       xml:space="preserve"
       style="font-style:normal;font-variant:normal;font-weight:normal;font-stretch:normal;font-size:18.4676px;line-height:1.25;font-family:Dyuthi;-inkscape-font-specification:Dyuthi;fill:#000000;fill-opacity:1;stroke:none;stroke-width:0.192371"
       x="104.86629"
       y="195.00015"
       id="text8901"><tspan
         sodipodi:role="line"
         style="font-style:normal;font-variant:normal;font-weight:normal;font-stretch:normal;font-size:18.4676px;font-family:Dyuthi;-inkscape-font-specification:Dyuthi;fill:#000000;stroke-width:0.192371"
         x="104.86629"
         y="195.00015"
         id="tspan20583">E-NOT</tspan></text>
    <text
       xml:space="preserve"
       style="font-style:normal;font-weight:normal;font-size:7.69481px;line-height:1.25;font-family:sans-serif;fill:#000000;fill-opacity:1;stroke:none;stroke-width:0.192371"
       x="132.15318"
       y="182.69092"
       id="text24097"><tspan
         sodipodi:role="line"
         id="tspan24095"
         style="font-style:normal;font-variant:normal;font-weight:normal;font-stretch:normal;font-family:Dyuthi;-inkscape-font-specification:Dyuthi;fill:#000000;stroke-width:0.192371"
         x="132.15318"
         y="182.69092">Project</tspan></text>
    <text
       xml:space="preserve"
       style="font-style:normal;font-variant:normal;font-weight:normal;font-stretch:normal;font-size:18.4676px;line-height:1.25;font-family:Dyuthi;-inkscape-font-specification:Dyuthi;fill:#000000;fill-opacity:1;stroke:none;stroke-width:0.192371"
       x="92.430687"
       y="41.495583"
       id="text8901-6"><tspan
         sodipodi:role="line"
         style="font-style:normal;font-variant:normal;font-weight:normal;font-stretch:normal;font-size:18.4676px;font-family:Dyuthi;-inkscape-font-specification:Dyuthi;stroke-width:0.192371"
         x="92.430687"
         y="41.495583"
         id="tspan20583-2">E-NOT</tspan></text>
    <text
       xml:space="preserve"
       style="font-style:normal;font-weight:normal;font-size:7.69481px;line-height:1.25;font-family:sans-serif;fill:#000000;fill-opacity:1;stroke:none;stroke-width:0.192371"
       x="119.71758"
       y="29.186342"
       id="text24097-6"><tspan
         sodipodi:role="line"
         id="tspan24095-1"
         style="font-style:normal;font-variant:normal;font-weight:normal;font-stretch:normal;font-family:Dyuthi;-inkscape-font-specification:Dyuthi;stroke-width:0.192371"
         x="119.71758"
         y="29.186342">Project</tspan></text>
    <circle
       style="fill:#f6ff57;fill-opacity:1;stroke-width:0.192371"
       id="path245-8"
       cx="110.71626"
       cy="100.21043"
       r="22.537024" />
    <path
       style="fill:#000000;stroke-width:0.192371"
       d="m 107.5029,111.12978 c -0.18943,-0.33308 -0.16256,-2.89838 0.0441,-4.20411 0.39154,-2.47461 1.11223,-4.42763 2.27963,-6.17762 2.04481,-3.065304 4.76909,-5.189877 8.11333,-6.327328 2.03199,-0.691124 2.26676,-0.649987 3.12408,0.547411 0.39729,0.554894 1.15403,1.434089 1.68165,1.95377 l 0.9593,0.944872 -2.78125,1.377741 c -6.29619,3.118914 -10.69899,6.889844 -12.75379,10.923404 -0.31549,0.61932 -0.61564,1.05215 -0.66699,0.96186 z m 10.16242,-11.477283 c -1.60604,-1.000434 -1.6127,-2.144727 -0.0173,-2.973043 0.83066,-0.431276 0.24949,-0.540868 -0.78109,-0.147282 -2.50273,0.955799 -1.97481,3.206519 0.78155,3.331968 0.375,0.01709 0.37543,0.01171 0.0169,-0.211643 z m 0.94497,-2.24904 c 0,-0.300375 -0.12427,-0.499592 -0.33723,-0.540606 -0.38079,-0.07333 -0.62844,0.387288 -0.45341,0.84338 0.18346,0.478114 0.79064,0.245604 0.79064,-0.302774 z M 94.820291,109.42663 c -0.954382,-1.88112 -1.467068,-3.5651 -1.687938,-5.54423 -0.426499,-3.82166 0.592759,-7.346331 3.07135,-10.621007 l 0.982673,-1.298286 -0.235128,-0.980113 C 96.821932,90.443936 96.708,89.309066 96.698075,88.461069 l -0.01803,-1.541819 2.116074,2.9e-5 c 1.702911,2.2e-5 2.367511,0.08611 3.403871,0.440881 1.27322,0.435865 1.30149,0.437035 2.50081,0.103542 1.87831,-0.522298 6.55849,-0.482789 8.23457,0.06951 1.84079,0.606581 3.01248,1.165473 4.52072,2.156368 l 1.34659,0.884707 -2.01989,0.120876 c -2.42178,0.144927 -3.99106,0.421766 -6.01494,1.061109 l -1.51123,0.477394 0.41112,0.696788 c 0.4428,0.750505 0.33085,0.70752 -0.76993,-0.295641 -0.90258,-0.822528 -3.8405,-2.749774 -5.04984,-3.312629 -1.43779,-0.669196 -3.03975,-1.103199 -4.699826,-1.273275 l -1.21769,-0.124758 0.0029,0.747959 c 0.0095,2.500811 1.961629,6.801892 4.389916,9.672236 0.89968,1.063458 0.73542,1.104232 -0.62013,0.15395 l -0.55571,-0.389571 -0.67568,0.753499 c -2.329407,2.597646 -4.178304,6.940566 -4.907047,11.526256 -0.04275,0.2691 -0.266486,-0.02 -0.744331,-0.96185 z m 26.483189,-2.5815 c -0.66281,-0.10531 -0.55092,-0.1389 0.80707,-0.24234 2.30832,-0.17582 4.53922,-1.3089 5.6509,-2.87012 l 0.40558,-0.56958 -0.70055,-0.77543 c -0.62622,-0.69315 -0.69438,-0.87115 -0.6424,-1.6775 0.0665,-1.031241 -0.0262,-1.010396 2.07805,-0.46693 1.68187,0.43436 1.70486,0.50607 0.79025,2.46422 -1.46418,3.13472 -4.6894,4.72551 -8.3889,4.13768 z"
       id="path12-79" />
    <text
       xml:space="preserve"
       style="font-style:normal;font-variant:normal;font-weight:normal;font-stretch:normal;font-size:18.4676px;line-height:1.25;font-family:Dyuthi;-inkscape-font-specification:Dyuthi;fill:#000000;fill-opacity:1;stroke:none;stroke-width:0.192371"
       x="82.866035"
       y="140.4359"
       id="text8901-6-2"><tspan
         sodipodi:role="line"
         style="font-style:normal;font-variant:normal;font-weight:normal;font-stretch:normal;font-size:18.4676px;font-family:Dyuthi;-inkscape-font-specification:Dyuthi;stroke-width:0.192371"
         x="82.866035"
         y="140.4359"
         id="tspan20583-2-0">E-NOT</tspan></text>
    <text
       xml:space="preserve"
       style="font-style:normal;font-weight:normal;font-size:7.69481px;line-height:1.25;font-family:sans-serif;fill:#000000;fill-opacity:1;stroke:none;stroke-width:0.192371"
       x="110.15292"
       y="128.12666"
       id="text24097-6-2"><tspan
         sodipodi:role="line"
         id="tspan24095-1-3"
         style="font-style:normal;font-variant:normal;font-weight:normal;font-stretch:normal;font-family:Dyuthi;-inkscape-font-specification:Dyuthi;stroke-width:0.192371"
         x="110.15292"
         y="128.12666">Project</tspan></text>
    <rect
       style="fill:#008000;fill-opacity:0;stroke-width:0.264583"
       id="rect34715"
       width="21.235468"
       height="21.249048"
       x="-141.64395"
       y="40.659477" />
    <circle
       style="fill:#000000;fill-opacity:1;stroke-width:0.192371"
       id="path245-6-2"
       cx="62.287857"
       cy="258.9216"
       r="22.537024" />
    <path
       style="fill:#ffffff;fill-opacity:1;stroke-width:0.192371"
       d="m 59.074476,269.84095 c -0.189431,-0.33307 -0.162558,-2.89838 0.04406,-4.2041 0.391543,-2.47462 1.112237,-4.42763 2.279629,-6.17762 2.044813,-3.0653 4.769096,-5.18988 8.113338,-6.32733 2.031988,-0.69112 2.266752,-0.64998 3.124077,0.54741 0.397286,0.5549 1.154029,1.43409 1.681649,1.95377 l 0.959298,0.94488 -2.781249,1.37774 c -6.296185,3.11891 -10.698991,6.88984 -12.753787,10.9234 -0.315491,0.61932 -0.61564,1.05215 -0.666993,0.96185 z m 10.16242,-11.47727 c -1.606034,-1.00044 -1.612701,-2.14473 -0.01731,-2.97305 0.830664,-0.43127 0.249495,-0.54086 -0.781084,-0.14728 -2.502738,0.9558 -1.974812,3.20652 0.781543,3.33197 0.375008,0.0171 0.375437,0.0117 0.01687,-0.21164 z m 0.944974,-2.24904 c 0,-0.30038 -0.124271,-0.4996 -0.33723,-0.54061 -0.380796,-0.0733 -0.628437,0.38729 -0.453416,0.84338 0.183469,0.47812 0.790646,0.24561 0.790646,-0.30277 z m -23.790001,12.02317 c -0.954382,-1.88112 -1.467068,-3.5651 -1.687938,-5.54423 -0.426492,-3.82166 0.592759,-7.34633 3.07135,-10.62101 l 0.982673,-1.29828 -0.235128,-0.98012 c -0.129317,-0.53905 -0.243249,-1.67392 -0.253173,-2.52192 l -0.01803,-1.54182 2.116073,3e-5 c 1.702916,2e-5 2.367524,0.0861 3.403869,0.44088 1.273224,0.43586 1.301493,0.43704 2.500818,0.10354 1.878314,-0.5223 6.55849,-0.48279 8.23457,0.0695 1.84079,0.60658 3.012479,1.16547 4.520715,2.15637 l 1.346593,0.88471 -2.01989,0.12087 c -2.421785,0.14493 -3.991058,0.42177 -6.014939,1.06111 l -1.511231,0.47739 0.411114,0.69679 c 0.442808,0.75051 0.330854,0.70752 -0.769931,-0.29564 -0.902578,-0.82253 -3.840497,-2.74977 -5.049826,-3.31263 -1.437797,-0.66919 -3.039752,-1.1032 -4.699836,-1.27327 l -1.217691,-0.12476 0.0029,0.74796 c 0.0095,2.50081 1.961629,6.80189 4.389922,9.67223 0.89967,1.06346 0.73541,1.10424 -0.620133,0.15395 l -0.555708,-0.38957 -0.675688,0.7535 c -2.329397,2.59764 -4.178301,6.94057 -4.907037,11.52625 -0.04275,0.26911 -0.266493,-0.02 -0.744338,-0.96185 z m 26.483194,-2.5815 c -0.662812,-0.10531 -0.550923,-0.13891 0.80707,-0.24235 2.308319,-0.17581 4.539212,-1.30889 5.650895,-2.87011 l 0.405582,-0.56958 -0.700554,-0.77543 c -0.626219,-0.69315 -0.694382,-0.87115 -0.642396,-1.6775 0.06645,-1.03124 -0.02625,-1.0104 2.078048,-0.46693 1.681874,0.43436 1.704864,0.50607 0.790246,2.46421 -1.464175,3.13473 -4.689395,4.72551 -8.388891,4.13769 z"
       id="path12-7-8" />
    <text
       xml:space="preserve"
       style="font-style:normal;font-variant:normal;font-weight:normal;font-stretch:normal;font-size:18.4676px;line-height:1.25;font-family:Dyuthi;-inkscape-font-specification:Dyuthi;fill:#000000;fill-opacity:1;stroke:none;stroke-width:0.192371"
       x="95.365433"
       y="264.20911"
       id="text8901-9"><tspan
         sodipodi:role="line"
         style="font-style:normal;font-variant:normal;font-weight:normal;font-stretch:normal;font-size:18.4676px;font-family:Dyuthi;-inkscape-font-specification:Dyuthi;fill:#000000;stroke-width:0.192371"
         x="95.365433"
         y="264.20911"
         id="tspan20583-7">E-NOT</tspan></text>
    <text
       xml:space="preserve"
       style="font-style:normal;font-weight:normal;font-size:7.69481px;line-height:1.25;font-family:sans-serif;fill:#000000;fill-opacity:1;stroke:none;stroke-width:0.192371"
       x="122.65232"
       y="251.89987"
       id="text24097-3"><tspan
         sodipodi:role="line"
         id="tspan24095-6"
         style="font-style:normal;font-variant:normal;font-weight:normal;font-stretch:normal;font-family:Dyuthi;-inkscape-font-specification:Dyuthi;fill:#000000;stroke-width:0.192371"
         x="122.65232"
         y="251.89987">Project</tspan></text>
    <rect
       style="fill:#5fd35f;fill-opacity:1;stroke-width:0.165739"
       id="rect999-1"
       width="148.35789"
       height="54.028442"
       x="-188.21611"
       y="165.4082" />
    <circle
       style="fill:#5fd35f;fill-opacity:1;stroke-width:0.192371"
       id="path245-2"
       cx="-159.09471"
       cy="37.706829"
       r="22.537024" />
    <path
       style="fill:#000000;stroke-width:0.192371"
       d="m -162.30809,48.626167 c -0.18943,-0.33308 -0.16255,-2.89838 0.044,-4.2041 0.39155,-2.47462 1.11224,-4.42763 2.27963,-6.17762 2.04482,-3.065305 4.7691,-5.189878 8.11334,-6.327329 2.03199,-0.691125 2.26675,-0.649987 3.12408,0.547411 0.39728,0.554893 1.15403,1.434089 1.68165,1.95377 l 0.95929,0.944872 -2.78124,1.377741 c -6.29619,3.118915 -10.69899,6.889845 -12.75379,10.923405 -0.31549,0.61931 -0.61564,1.05215 -0.667,0.96185 z m 10.16242,-11.47727 c -1.60603,-1.000439 -1.6127,-2.144732 -0.0173,-2.973047 0.83067,-0.431276 0.2495,-0.540868 -0.78108,-0.147283 -2.50274,0.9558 -1.97481,3.20652 0.78154,3.33197 0.37501,0.0171 0.37544,0.0117 0.0169,-0.21164 z m 0.94498,-2.249044 c 0,-0.300375 -0.12427,-0.499593 -0.33723,-0.540607 -0.3808,-0.07333 -0.62844,0.387289 -0.45342,0.843381 0.18347,0.478114 0.79065,0.245604 0.79065,-0.302774 z m -23.79,12.023174 c -0.95438,-1.88112 -1.46707,-3.5651 -1.68794,-5.54423 -0.4265,-3.82166 0.59276,-7.346333 3.07135,-10.621008 l 0.98267,-1.298287 -0.23512,-0.980113 c -0.12932,-0.539057 -0.24325,-1.673927 -0.25318,-2.521924 l -0.0181,-1.541819 2.11608,2.9e-5 c 1.70291,2.2e-5 2.36752,0.08611 3.40386,0.440881 1.27323,0.435864 1.3015,0.437035 2.50082,0.103542 1.87831,-0.522298 6.55849,-0.482789 8.23457,0.06951 1.84079,0.606581 3.01248,1.165473 4.52072,2.156368 l 1.34659,0.884707 -2.01989,0.120876 c -2.42179,0.144927 -3.99106,0.421766 -6.01494,1.061108 l -1.51123,0.477395 0.41111,0.696788 c 0.44281,0.750504 0.33086,0.70752 -0.76993,-0.295641 -0.90258,-0.822528 -3.8405,-2.749774 -5.04983,-3.312629 -1.43779,-0.669196 -3.03975,-1.103199 -4.69983,-1.273275 l -1.21769,-0.124758 0.003,0.747959 c 0.01,2.500811 1.96163,6.801892 4.38992,9.672236 0.89967,1.063457 0.73541,1.104232 -0.62013,0.15395 l -0.55571,-0.389572 -0.67568,0.7535 c -2.32941,2.597637 -4.17831,6.940567 -4.90705,11.526257 -0.0428,0.2691 -0.26649,-0.02 -0.74433,-0.96185 z m 26.48319,-2.5815 c -0.66281,-0.10532 -0.55092,-0.13891 0.80707,-0.24235 2.30832,-0.17581 4.53921,-1.30889 5.6509,-2.87012 l 0.40558,-0.56958 -0.70056,-0.77542 c -0.62622,-0.69315 -0.69438,-0.87115 -0.64239,-1.6775 0.0664,-1.03124 -0.0263,-1.0104 2.07805,-0.46693 1.68187,0.43436 1.70486,0.50607 0.79024,2.46421 -1.46417,3.13472 -4.68939,4.72551 -8.38889,4.13769 z"
       id="path12-9" />
    <circle
       style="fill:#000000;fill-opacity:1;stroke-width:0.192371"
       id="path245-6-3"
       cx="-160.74796"
       cy="193.62802"
       r="22.537024" />
    <path
       style="fill:#5fd35f;fill-opacity:1;stroke-width:0.192371"
       d="m -163.96134,204.54736 c -0.18943,-0.33308 -0.16256,-2.89838 0.044,-4.20411 0.39155,-2.47461 1.11224,-4.42762 2.27963,-6.17762 2.04481,-3.0653 4.7691,-5.18987 8.11334,-6.32732 2.03198,-0.69113 2.26675,-0.64999 3.12408,0.54741 0.39728,0.55489 1.15402,1.43409 1.68164,1.95377 l 0.9593,0.94487 -2.78125,1.37774 c -6.29618,3.11892 -10.69899,6.88985 -12.75378,10.9234 -0.3155,0.61932 -0.61565,1.05215 -0.667,0.96186 z m 10.16242,-11.47728 c -1.60603,-1.00043 -1.6127,-2.14473 -0.0173,-2.97304 0.83066,-0.43128 0.24949,-0.54087 -0.78108,-0.14728 -2.50274,0.9558 -1.97482,3.20652 0.78154,3.33197 0.37501,0.0171 0.37544,0.0117 0.0169,-0.21165 z m 0.94498,-2.24904 c 0,-0.30037 -0.12428,-0.49959 -0.33723,-0.5406 -0.3808,-0.0733 -0.62844,0.38728 -0.45342,0.84338 0.18347,0.47811 0.79065,0.2456 0.79065,-0.30278 z m -23.79,12.02318 c -0.95438,-1.88112 -1.46707,-3.56511 -1.68794,-5.54424 -0.4265,-3.82165 0.59276,-7.34633 3.07135,-10.621 l 0.98267,-1.29829 -0.23513,-0.98011 c -0.12932,-0.53906 -0.24324,-1.67393 -0.25317,-2.52193 l -0.018,-1.54181 2.11608,2e-5 c 1.70291,3e-5 2.36751,0.0861 3.40386,0.44089 1.27323,0.43586 1.3015,0.43703 2.50082,0.10354 1.87831,-0.5223 6.55849,-0.48279 8.23457,0.0695 1.84079,0.60658 3.01248,1.16547 4.52071,2.15636 l 1.3466,0.88471 -2.01989,0.12088 c -2.42179,0.14492 -3.99106,0.42176 -6.01494,1.0611 l -1.51123,0.4774 0.41111,0.69679 c 0.44281,0.7505 0.33085,0.70752 -0.76993,-0.29564 -0.90258,-0.82253 -3.8405,-2.74978 -5.04983,-3.31263 -1.43779,-0.6692 -3.03975,-1.1032 -4.69983,-1.27328 l -1.21769,-0.12476 0.003,0.74796 c 0.01,2.50081 1.96163,6.8019 4.38992,9.67224 0.89967,1.06346 0.73541,1.10423 -0.62013,0.15395 l -0.55571,-0.38957 -0.67569,0.7535 c -2.3294,2.59764 -4.1783,6.94056 -4.90704,11.52625 -0.0428,0.2691 -0.26649,-0.02 -0.74433,-0.96185 z m 26.48319,-2.5815 c -0.66281,-0.10532 -0.55092,-0.13891 0.80707,-0.24235 2.30832,-0.17581 4.53921,-1.3089 5.65089,-2.87012 l 0.40558,-0.56958 -0.70055,-0.77543 c -0.62622,-0.69314 -0.69438,-0.87114 -0.64239,-1.6775 0.0664,-1.03124 -0.0263,-1.01039 2.07804,-0.46693 1.68188,0.43436 1.70487,0.50607 0.79025,2.46422 -1.46418,3.13472 -4.6894,4.72551 -8.38889,4.13769 z"
       id="path12-7-1" />
    <text
       xml:space="preserve"
       style="font-style:normal;font-variant:normal;font-weight:normal;font-stretch:normal;font-size:18.4676px;line-height:1.25;font-family:Dyuthi;-inkscape-font-specification:Dyuthi;fill:#000000;fill-opacity:1;stroke:none;stroke-width:0.192371"
       x="-117.70542"
       y="197.3613"
       id="text8901-94"><tspan
         sodipodi:role="line"
         style="font-style:normal;font-variant:normal;font-weight:normal;font-stretch:normal;font-size:18.4676px;font-family:Dyuthi;-inkscape-font-specification:Dyuthi;fill:#000000;stroke-width:0.192371"
         x="-117.70542"
         y="197.3613"
         id="tspan20583-78">E-NOT</tspan></text>
    <text
       xml:space="preserve"
       style="font-style:normal;font-weight:normal;font-size:7.69481px;line-height:1.25;font-family:sans-serif;fill:#000000;fill-opacity:1;stroke:none;stroke-width:0.192371"
       x="-90.418541"
       y="185.05206"
       id="text24097-4"><tspan
         sodipodi:role="line"
         id="tspan24095-5"
         style="font-style:normal;font-variant:normal;font-weight:normal;font-stretch:normal;font-family:Dyuthi;-inkscape-font-specification:Dyuthi;fill:#000000;stroke-width:0.192371"
         x="-90.418541"
         y="185.05206">Project</tspan></text>
    <text
       xml:space="preserve"
       style="font-style:normal;font-variant:normal;font-weight:normal;font-stretch:normal;font-size:18.4676px;line-height:1.25;font-family:Dyuthi;-inkscape-font-specification:Dyuthi;fill:#000000;fill-opacity:1;stroke:none;stroke-width:0.192371"
       x="-130.14102"
       y="43.856724"
       id="text8901-6-0"><tspan
         sodipodi:role="line"
         style="font-style:normal;font-variant:normal;font-weight:normal;font-stretch:normal;font-size:18.4676px;font-family:Dyuthi;-inkscape-font-specification:Dyuthi;stroke-width:0.192371"
         x="-130.14102"
         y="43.856724"
         id="tspan20583-2-3">E-NOT</tspan></text>
    <text
       xml:space="preserve"
       style="font-style:normal;font-weight:normal;font-size:7.69481px;line-height:1.25;font-family:sans-serif;fill:#000000;fill-opacity:1;stroke:none;stroke-width:0.192371"
       x="-102.85413"
       y="31.547482"
       id="text24097-6-6"><tspan
         sodipodi:role="line"
         id="tspan24095-1-1"
         style="font-style:normal;font-variant:normal;font-weight:normal;font-stretch:normal;font-family:Dyuthi;-inkscape-font-specification:Dyuthi;stroke-width:0.192371"
         x="-102.85413"
         y="31.547482">Project</tspan></text>
    <circle
       style="fill:#5fd35f;fill-opacity:1;stroke-width:0.192371"
       id="path245-8-0"
       cx="-111.85544"
       cy="102.57156"
       r="22.537024" />
    <path
       style="fill:#000000;stroke-width:0.192371"
       d="m -115.06882,113.49092 c -0.18943,-0.33308 -0.16255,-2.89838 0.0441,-4.20411 0.39155,-2.47461 1.11224,-4.42763 2.27963,-6.17762 2.04482,-3.0653 4.7691,-5.189883 8.11334,-6.327333 2.03199,-0.69112 2.26675,-0.64998 3.12408,0.54741 0.39728,0.5549 1.15403,1.43409 1.681646,1.95377 l 0.95929,0.944883 -2.781236,1.37774 c -6.29619,3.11891 -10.699,6.88984 -12.75379,10.9234 -0.31549,0.61932 -0.61564,1.05215 -0.667,0.96186 z m 10.16242,-11.47728 c -1.60603,-1.00044 -1.6127,-2.144733 -0.0173,-2.973053 0.83067,-0.43127 0.2495,-0.54086 -0.78108,-0.14728 -2.50274,0.9558 -1.97481,3.206523 0.78154,3.331973 0.37501,0.0171 0.37544,0.0117 0.0169,-0.21164 z m 0.94498,-2.249043 c 0,-0.30038 -0.12427,-0.49959 -0.33723,-0.54061 -0.3808,-0.0733 -0.62844,0.38729 -0.45342,0.843383 0.18347,0.47812 0.79065,0.24561 0.79065,-0.302773 z m -23.79,12.023173 c -0.95439,-1.88112 -1.46707,-3.5651 -1.68794,-5.54423 -0.4265,-3.82166 0.59276,-7.346333 3.07135,-10.621013 l 0.98267,-1.29828 -0.23513,-0.98012 c -0.12931,-0.53905 -0.24324,-1.67392 -0.25317,-2.52192 l -0.018,-1.54182 2.11608,3e-5 c 1.70291,2e-5 2.36751,0.0861 3.40386,0.44088 1.27323,0.43587 1.3015,0.43704 2.50082,0.10354 1.87831,-0.5223 6.55849,-0.48279 8.23457,0.0695 1.84079,0.60658 3.01248,1.16548 4.52072,2.15637 l 1.34659,0.88471 -2.01989,0.12087 c -2.42179,0.14493 -3.99106,0.42177 -6.01494,1.06111 l -1.51123,0.4774 0.41111,0.69678 c 0.44281,0.75051 0.33086,0.70752 -0.76993,-0.29564 -0.90258,-0.82252 -3.84049,-2.74977 -5.04983,-3.31263 -1.43779,-0.66919 -3.03975,-1.10319 -4.69983,-1.27327 l -1.21769,-0.12476 0.003,0.74796 c 0.01,2.50081 1.96163,6.80189 4.38992,9.672243 0.89967,1.06345 0.73541,1.10423 -0.62013,0.15395 l -0.55571,-0.38957 -0.67569,0.75349 c -2.3294,2.59765 -4.1783,6.94057 -4.90704,11.52626 -0.0427,0.2691 -0.26649,-0.02 -0.74433,-0.96185 z m 26.48319,-2.5815 c -0.66281,-0.10531 -0.55092,-0.1389 0.80707,-0.24234 2.308316,-0.17582 4.539206,-1.3089 5.650896,-2.87012 l 0.40558,-0.56958 -0.70056,-0.77543 c -0.62622,-0.69315 -0.69438,-0.87115 -0.64239,-1.6775 0.0665,-1.03124 -0.0262,-1.0104 2.07805,-0.46693 1.68187,0.43436 1.70486,0.50607 0.79024,2.46422 -1.46417,3.13472 -4.68939,4.72551 -8.388886,4.13768 z"
       id="path12-79-6" />
    <text
       xml:space="preserve"
       style="font-style:normal;font-variant:normal;font-weight:normal;font-stretch:normal;font-size:18.4676px;line-height:1.25;font-family:Dyuthi;-inkscape-font-specification:Dyuthi;fill:#000000;fill-opacity:1;stroke:none;stroke-width:0.192371"
       x="-139.70567"
       y="142.79704"
       id="text8901-6-2-3"><tspan
         sodipodi:role="line"
         style="font-style:normal;font-variant:normal;font-weight:normal;font-stretch:normal;font-size:18.4676px;font-family:Dyuthi;-inkscape-font-specification:Dyuthi;stroke-width:0.192371"
         x="-139.70567"
         y="142.79704"
         id="tspan20583-2-0-2">E-NOT</tspan></text>
    <text
       xml:space="preserve"
       style="font-style:normal;font-weight:normal;font-size:7.69481px;line-height:1.25;font-family:sans-serif;fill:#000000;fill-opacity:1;stroke:none;stroke-width:0.192371"
       x="-112.41879"
       y="130.48781"
       id="text24097-6-2-0"><tspan
         sodipodi:role="line"
         id="tspan24095-1-3-6"
         style="font-style:normal;font-variant:normal;font-weight:normal;font-stretch:normal;font-family:Dyuthi;-inkscape-font-specification:Dyuthi;stroke-width:0.192371"
         x="-112.41879"
         y="130.48781">Project</tspan></text>
    <circle
       style="fill:#000000;fill-opacity:1;stroke-width:0.192371"
       id="path245-6-2-1"
       cx="-160.28384"
       cy="261.28275"
       r="22.537024" />
    <path
       style="fill:#ffffff;fill-opacity:1;stroke-width:0.192371"
       d="m -163.49724,272.20209 c -0.18943,-0.33307 -0.16256,-2.89838 0.0441,-4.2041 0.39154,-2.47462 1.11224,-4.42763 2.27963,-6.17762 2.04481,-3.0653 4.7691,-5.18988 8.11334,-6.32733 2.03199,-0.69112 2.26675,-0.64998 3.12408,0.54741 0.39728,0.5549 1.15403,1.43409 1.68164,1.95377 l 0.9593,0.94488 -2.78125,1.37774 c -6.29618,3.11891 -10.69899,6.88984 -12.75378,10.9234 -0.31549,0.61932 -0.61564,1.05215 -0.667,0.96185 z m 10.16242,-11.47727 c -1.60603,-1.00044 -1.6127,-2.14473 -0.0173,-2.97305 0.83067,-0.43127 0.2495,-0.54086 -0.78108,-0.14728 -2.50274,0.9558 -1.97481,3.20652 0.78154,3.33197 0.37501,0.0171 0.37544,0.0117 0.0169,-0.21164 z m 0.94498,-2.24904 c 0,-0.30038 -0.12427,-0.4996 -0.33723,-0.54061 -0.3808,-0.0733 -0.62844,0.38729 -0.45342,0.84338 0.18347,0.47812 0.79065,0.24561 0.79065,-0.30277 z m -23.79,12.02317 c -0.95439,-1.88112 -1.46707,-3.5651 -1.68794,-5.54423 -0.42649,-3.82166 0.59276,-7.34633 3.07135,-10.62101 l 0.98267,-1.29828 -0.23513,-0.98012 c -0.12932,-0.53905 -0.24325,-1.67392 -0.25317,-2.52192 l -0.018,-1.54182 2.11607,3e-5 c 1.70292,2e-5 2.36753,0.0861 3.40387,0.44088 1.27323,0.43586 1.30149,0.43704 2.50082,0.10354 1.87831,-0.5223 6.55849,-0.48279 8.23457,0.0695 1.84079,0.60658 3.01248,1.16547 4.52071,2.15637 l 1.3466,0.88471 -2.01989,0.12087 c -2.42179,0.14493 -3.99106,0.42177 -6.01494,1.06111 l -1.51123,0.47739 0.41111,0.69679 c 0.44281,0.75051 0.33085,0.70752 -0.76993,-0.29564 -0.90258,-0.82253 -3.8405,-2.74977 -5.04983,-3.31263 -1.43779,-0.66919 -3.03975,-1.1032 -4.69983,-1.27327 l -1.21769,-0.12476 0.003,0.74796 c 0.01,2.50081 1.96163,6.80189 4.38992,9.67223 0.89967,1.06346 0.73541,1.10424 -0.62013,0.15395 l -0.55571,-0.38957 -0.67569,0.7535 c -2.3294,2.59764 -4.1783,6.94057 -4.90704,11.52625 -0.0428,0.26911 -0.26649,-0.02 -0.74433,-0.96185 z m 26.48319,-2.5815 c -0.66281,-0.10531 -0.55092,-0.13891 0.80707,-0.24235 2.30832,-0.17581 4.53921,-1.30889 5.65089,-2.87011 l 0.40559,-0.56958 -0.70056,-0.77543 c -0.62622,-0.69315 -0.69438,-0.87115 -0.64239,-1.6775 0.0665,-1.03124 -0.0263,-1.0104 2.07804,-0.46693 1.68188,0.43436 1.70487,0.50607 0.79025,2.46421 -1.46417,3.13473 -4.68939,4.72551 -8.38889,4.13769 z"
       id="path12-7-8-5" />
    <text
       xml:space="preserve"
       style="font-style:normal;font-variant:normal;font-weight:normal;font-stretch:normal;font-size:18.4676px;line-height:1.25;font-family:Dyuthi;-inkscape-font-specification:Dyuthi;fill:#000000;fill-opacity:1;stroke:none;stroke-width:0.192371"
       x="-127.20628"
       y="266.57025"
       id="text8901-9-5"><tspan
         sodipodi:role="line"
         style="font-style:normal;font-variant:normal;font-weight:normal;font-stretch:normal;font-size:18.4676px;font-family:Dyuthi;-inkscape-font-specification:Dyuthi;fill:#000000;stroke-width:0.192371"
         x="-127.20628"
         y="266.57025"
         id="tspan20583-7-4">E-NOT</tspan></text>
    <text
       xml:space="preserve"
       style="font-style:normal;font-weight:normal;font-size:7.69481px;line-height:1.25;font-family:sans-serif;fill:#000000;fill-opacity:1;stroke:none;stroke-width:0.192371"
       x="-99.919388"
       y="254.26102"
       id="text24097-3-7"><tspan
         sodipodi:role="line"
         id="tspan24095-6-6"
         style="font-style:normal;font-variant:normal;font-weight:normal;font-stretch:normal;font-family:Dyuthi;-inkscape-font-specification:Dyuthi;fill:#000000;stroke-width:0.192371"
         x="-99.919388"
         y="254.26102">Project</tspan></text>
    <rect
       style="fill:#008000;fill-opacity:0;stroke-width:0.264583"
       id="rect34715-5"
       width="21.235468"
       height="21.249048"
       x="288.20984"
       y="39.429035" />
    <rect
       style="fill:#b380ff;fill-opacity:1;stroke-width:0.165739"
       id="rect999-1-6"
       width="148.35789"
       height="54.028442"
       x="241.6377"
       y="164.17776" />
    <circle
       style="fill:#b380ff;fill-opacity:1;stroke-width:0.192371"
       id="path245-2-9"
       cx="270.75909"
       cy="36.476387"
       r="22.537024" />
    <path
       style="fill:#000000;stroke-width:0.192371"
       d="m 267.54569,47.395727 c -0.18943,-0.33308 -0.16255,-2.89838 0.044,-4.2041 0.39155,-2.47462 1.11224,-4.42763 2.27963,-6.17762 2.04482,-3.065305 4.7691,-5.189878 8.11334,-6.327329 2.03199,-0.691125 2.26675,-0.649987 3.12408,0.547411 0.39728,0.554893 1.15403,1.434089 1.68165,1.95377 l 0.95929,0.944872 -2.78124,1.377741 c -6.29619,3.118915 -10.69899,6.889845 -12.75379,10.923405 -0.31549,0.61931 -0.61564,1.05215 -0.667,0.96185 z m 10.16242,-11.47727 c -1.60603,-1.000439 -1.6127,-2.144732 -0.0173,-2.973047 0.83067,-0.431276 0.2495,-0.540868 -0.78108,-0.147283 -2.50274,0.9558 -1.97481,3.20652 0.78154,3.33197 0.37501,0.0171 0.37544,0.0117 0.0169,-0.21164 z m 0.94498,-2.249044 c 0,-0.300375 -0.12427,-0.499593 -0.33723,-0.540607 -0.3808,-0.07333 -0.62844,0.387289 -0.45342,0.843381 0.18347,0.478114 0.79065,0.245604 0.79065,-0.302774 z m -23.79,12.023174 c -0.95438,-1.88112 -1.46707,-3.5651 -1.68794,-5.54423 -0.4265,-3.82166 0.59276,-7.346333 3.07135,-10.621008 l 0.98267,-1.298287 -0.23512,-0.980113 c -0.12932,-0.539057 -0.24325,-1.673927 -0.25318,-2.521924 l -0.0181,-1.541819 2.11608,2.9e-5 c 1.70291,2.2e-5 2.36752,0.08611 3.40386,0.440881 1.27323,0.435864 1.3015,0.437035 2.50082,0.103542 1.87831,-0.522298 6.55849,-0.482789 8.23457,0.06951 1.84079,0.606581 3.01248,1.165473 4.52072,2.156368 l 1.34659,0.884707 -2.01989,0.120876 c -2.42179,0.144927 -3.99106,0.421766 -6.01494,1.061108 l -1.51123,0.477395 0.41111,0.696788 c 0.44281,0.750504 0.33086,0.70752 -0.76993,-0.295641 -0.90258,-0.822528 -3.8405,-2.749774 -5.04983,-3.312629 -1.43779,-0.669196 -3.03975,-1.103199 -4.69983,-1.273275 l -1.21769,-0.124758 0.003,0.747959 c 0.01,2.500811 1.96163,6.801892 4.38992,9.672236 0.89967,1.063457 0.73541,1.104232 -0.62013,0.15395 l -0.55571,-0.389572 -0.67568,0.7535 c -2.32941,2.597637 -4.17831,6.940567 -4.90705,11.526257 -0.0428,0.2691 -0.26649,-0.02 -0.74433,-0.96185 z m 26.48319,-2.5815 c -0.66281,-0.10532 -0.55092,-0.13891 0.80707,-0.24235 2.30832,-0.17581 4.53921,-1.30889 5.6509,-2.87012 l 0.40558,-0.56958 -0.70056,-0.77542 c -0.62622,-0.69315 -0.69438,-0.87115 -0.64239,-1.6775 0.0664,-1.03124 -0.0263,-1.0104 2.07805,-0.46693 1.68187,0.43436 1.70486,0.50607 0.79024,2.46421 -1.46417,3.13472 -4.68939,4.72551 -8.38889,4.13769 z"
       id="path12-9-3" />
    <circle
       style="fill:#000000;fill-opacity:1;stroke-width:0.192371"
       id="path245-6-3-7"
       cx="269.10583"
       cy="192.39758"
       r="22.537024" />
    <path
       style="fill:#b380ff;fill-opacity:1;stroke-width:0.192371"
       d="m 265.89244,203.31692 c -0.18943,-0.33308 -0.16256,-2.89838 0.044,-4.20411 0.39155,-2.47461 1.11224,-4.42762 2.27963,-6.17762 2.04481,-3.0653 4.7691,-5.18987 8.11334,-6.32732 2.03198,-0.69113 2.26675,-0.64999 3.12408,0.54741 0.39728,0.55489 1.15402,1.43409 1.68164,1.95377 l 0.9593,0.94487 -2.78125,1.37774 c -6.29618,3.11892 -10.69899,6.88985 -12.75378,10.9234 -0.3155,0.61932 -0.61565,1.05215 -0.667,0.96186 z m 10.16242,-11.47728 c -1.60603,-1.00043 -1.6127,-2.14473 -0.0173,-2.97304 0.83066,-0.43128 0.24949,-0.54087 -0.78108,-0.14728 -2.50274,0.9558 -1.97482,3.20652 0.78154,3.33197 0.37501,0.0171 0.37544,0.0117 0.0169,-0.21165 z m 0.94498,-2.24904 c 0,-0.30037 -0.12428,-0.49959 -0.33723,-0.5406 -0.3808,-0.0733 -0.62844,0.38728 -0.45342,0.84338 0.18347,0.47811 0.79065,0.2456 0.79065,-0.30278 z m -23.79,12.02318 c -0.95438,-1.88112 -1.46707,-3.56511 -1.68794,-5.54424 -0.4265,-3.82165 0.59276,-7.34633 3.07135,-10.621 l 0.98267,-1.29828 -0.23513,-0.98011 c -0.12932,-0.53906 -0.24324,-1.67393 -0.25317,-2.52193 l -0.018,-1.54181 2.11608,2e-5 c 1.70291,3e-5 2.36751,0.0861 3.40386,0.44089 1.27323,0.43586 1.3015,0.43703 2.50082,0.10354 1.87831,-0.5223 6.55849,-0.48279 8.23457,0.0695 1.84079,0.60658 3.01248,1.16547 4.52071,2.15636 l 1.3466,0.88471 -2.01989,0.12088 c -2.42179,0.14492 -3.99106,0.42176 -6.01494,1.0611 l -1.51123,0.4774 0.41111,0.69679 c 0.44281,0.75049 0.33085,0.70751 -0.76993,-0.29564 -0.90258,-0.82253 -3.8405,-2.74978 -5.04983,-3.31263 -1.43779,-0.6692 -3.03975,-1.1032 -4.69983,-1.27328 l -1.21769,-0.12476 0.003,0.74796 c 0.01,2.50081 1.96163,6.80189 4.38992,9.67223 0.89967,1.06346 0.73541,1.10423 -0.62013,0.15395 l -0.55571,-0.38957 -0.67569,0.7535 c -2.3294,2.59764 -4.1783,6.94056 -4.90704,11.52625 -0.0428,0.2691 -0.26649,-0.02 -0.74433,-0.96185 z m 26.48319,-2.5815 c -0.66281,-0.10532 -0.55092,-0.13891 0.80707,-0.24235 2.30832,-0.17581 4.53921,-1.3089 5.65089,-2.87012 l 0.40558,-0.56958 -0.70055,-0.77543 c -0.62622,-0.69314 -0.69438,-0.87114 -0.64239,-1.6775 0.0664,-1.03124 -0.0263,-1.01039 2.07804,-0.46693 1.68188,0.43436 1.70487,0.50607 0.79025,2.46422 -1.46418,3.13472 -4.6894,4.72551 -8.38889,4.13769 z"
       id="path12-7-1-4" />
    <text
       xml:space="preserve"
       style="font-style:normal;font-variant:normal;font-weight:normal;font-stretch:normal;font-size:18.4676px;line-height:1.25;font-family:Dyuthi;-inkscape-font-specification:Dyuthi;fill:#000000;fill-opacity:1;stroke:none;stroke-width:0.192371"
       x="312.14838"
       y="196.13086"
       id="text8901-94-5"><tspan
         sodipodi:role="line"
         style="font-style:normal;font-variant:normal;font-weight:normal;font-stretch:normal;font-size:18.4676px;font-family:Dyuthi;-inkscape-font-specification:Dyuthi;fill:#000000;stroke-width:0.192371"
         x="312.14838"
         y="196.13086"
         id="tspan20583-78-2">E-NOT</tspan></text>
    <text
       xml:space="preserve"
       style="font-style:normal;font-weight:normal;font-size:7.69481px;line-height:1.25;font-family:sans-serif;fill:#000000;fill-opacity:1;stroke:none;stroke-width:0.192371"
       x="339.43524"
       y="183.82162"
       id="text24097-4-5"><tspan
         sodipodi:role="line"
         id="tspan24095-5-4"
         style="font-style:normal;font-variant:normal;font-weight:normal;font-stretch:normal;font-family:Dyuthi;-inkscape-font-specification:Dyuthi;fill:#000000;stroke-width:0.192371"
         x="339.43524"
         y="183.82162">Project</tspan></text>
    <text
       xml:space="preserve"
       style="font-style:normal;font-variant:normal;font-weight:normal;font-stretch:normal;font-size:18.4676px;line-height:1.25;font-family:Dyuthi;-inkscape-font-specification:Dyuthi;fill:#000000;fill-opacity:1;stroke:none;stroke-width:0.192371"
       x="299.71277"
       y="42.626282"
       id="text8901-6-0-7"><tspan
         sodipodi:role="line"
         style="font-style:normal;font-variant:normal;font-weight:normal;font-stretch:normal;font-size:18.4676px;font-family:Dyuthi;-inkscape-font-specification:Dyuthi;stroke-width:0.192371"
         x="299.71277"
         y="42.626282"
         id="tspan20583-2-3-4">E-NOT</tspan></text>
    <text
       xml:space="preserve"
       style="font-style:normal;font-weight:normal;font-size:7.69481px;line-height:1.25;font-family:sans-serif;fill:#000000;fill-opacity:1;stroke:none;stroke-width:0.192371"
       x="326.99969"
       y="30.317041"
       id="text24097-6-6-4"><tspan
         sodipodi:role="line"
         id="tspan24095-1-1-3"
         style="font-style:normal;font-variant:normal;font-weight:normal;font-stretch:normal;font-family:Dyuthi;-inkscape-font-specification:Dyuthi;stroke-width:0.192371"
         x="326.99969"
         y="30.317041">Project</tspan></text>
    <circle
       style="fill:#b380ff;fill-opacity:1;stroke-width:0.192371"
       id="path245-8-0-0"
       cx="317.99835"
       cy="101.34112"
       r="22.537024" />
    <path
       style="fill:#000000;stroke-width:0.192371"
       d="m 314.78496,112.26049 c -0.18943,-0.33308 -0.16255,-2.89838 0.0441,-4.20411 0.39155,-2.47461 1.11224,-4.42763 2.27963,-6.17762 2.04482,-3.065304 4.7691,-5.189898 8.11334,-6.327348 2.03199,-0.69112 2.26675,-0.64998 3.12408,0.54741 0.39728,0.5549 1.15403,1.43409 1.68165,1.953774 l 0.95929,0.94489 -2.78124,1.377744 c -6.29619,3.11891 -10.699,6.88984 -12.75379,10.9234 -0.31549,0.61932 -0.61564,1.05215 -0.667,0.96186 z m 10.16242,-11.47728 c -1.60603,-1.000444 -1.6127,-2.144744 -0.0173,-2.973064 0.83067,-0.431274 0.2495,-0.540864 -0.78108,-0.147284 -2.50274,0.955804 -1.97481,3.206538 0.78154,3.331988 0.37501,0.0171 0.37544,0.0117 0.0169,-0.21164 z m 0.94498,-2.249054 c 0,-0.30038 -0.12427,-0.49959 -0.33723,-0.54061 -0.3808,-0.0733 -0.62844,0.38729 -0.45342,0.84339 0.18347,0.47812 0.79065,0.24561 0.79065,-0.30278 z m -23.79,12.023184 c -0.95439,-1.88112 -1.46707,-3.5651 -1.68794,-5.54423 -0.4265,-3.82166 0.59276,-7.346348 3.07135,-10.621028 l 0.98267,-1.298275 -0.23513,-0.98012 c -0.12931,-0.53905 -0.24324,-1.67392 -0.25317,-2.52192 l -0.018,-1.54182 2.11608,3e-5 c 1.70291,2e-5 2.36751,0.0861 3.40386,0.44088 1.27323,0.43587 1.3015,0.43704 2.50082,0.10354 1.87831,-0.5223 6.55849,-0.48279 8.23457,0.0695 1.84079,0.60658 3.01248,1.16548 4.52072,2.15637 l 1.34659,0.88471 -2.01989,0.12087 c -2.42179,0.14493 -3.99106,0.42177 -6.01494,1.06111 l -1.51123,0.4774 0.41111,0.69678 c 0.44281,0.750505 0.33086,0.707515 -0.76993,-0.29564 -0.90258,-0.82252 -3.84049,-2.74977 -5.04983,-3.31263 -1.43779,-0.66919 -3.03975,-1.10319 -4.69983,-1.27327 l -1.21769,-0.12476 0.003,0.74796 c 0.01,2.50081 1.96163,6.801885 4.38992,9.672249 0.89967,1.063454 0.73541,1.104234 -0.62013,0.15395 l -0.55571,-0.38957 -0.67569,0.75349 c -2.3294,2.597654 -4.1783,6.940574 -4.90704,11.526264 -0.0427,0.2691 -0.26649,-0.02 -0.74433,-0.96185 z m 26.48319,-2.5815 c -0.66281,-0.10531 -0.55092,-0.1389 0.80707,-0.24234 2.30832,-0.17582 4.53921,-1.3089 5.6509,-2.87012 l 0.40558,-0.56958 -0.70056,-0.77543 c -0.62622,-0.69315 -0.69438,-0.87115 -0.64239,-1.6775 0.0665,-1.03124 -0.0262,-1.0104 2.07805,-0.46693 1.68187,0.43436 1.70486,0.50607 0.79024,2.46422 -1.46417,3.13472 -4.68939,4.72551 -8.38889,4.13768 z"
       id="path12-79-6-7" />
    <text
       xml:space="preserve"
       style="font-style:normal;font-variant:normal;font-weight:normal;font-stretch:normal;font-size:18.4676px;line-height:1.25;font-family:Dyuthi;-inkscape-font-specification:Dyuthi;fill:#000000;fill-opacity:1;stroke:none;stroke-width:0.192371"
       x="290.14813"
       y="141.5666"
       id="text8901-6-2-3-8"><tspan
         sodipodi:role="line"
         style="font-style:normal;font-variant:normal;font-weight:normal;font-stretch:normal;font-size:18.4676px;font-family:Dyuthi;-inkscape-font-specification:Dyuthi;stroke-width:0.192371"
         x="290.14813"
         y="141.5666"
         id="tspan20583-2-0-2-6">E-NOT</tspan></text>
    <text
       xml:space="preserve"
       style="font-style:normal;font-weight:normal;font-size:7.69481px;line-height:1.25;font-family:sans-serif;fill:#000000;fill-opacity:1;stroke:none;stroke-width:0.192371"
       x="317.435"
       y="129.25737"
       id="text24097-6-2-0-8"><tspan
         sodipodi:role="line"
         id="tspan24095-1-3-6-8"
         style="font-style:normal;font-variant:normal;font-weight:normal;font-stretch:normal;font-family:Dyuthi;-inkscape-font-specification:Dyuthi;stroke-width:0.192371"
         x="317.435"
         y="129.25737">Project</tspan></text>
    <circle
       style="fill:#000000;fill-opacity:1;stroke-width:0.192371"
       id="path245-6-2-1-4"
       cx="269.56995"
       cy="260.05231"
       r="22.537024" />
    <path
       style="fill:#ffffff;fill-opacity:1;stroke-width:0.192371"
       d="m 266.35654,270.97165 c -0.18943,-0.33307 -0.16256,-2.89838 0.0441,-4.2041 0.39154,-2.47462 1.11224,-4.42763 2.27963,-6.17762 2.04481,-3.0653 4.7691,-5.18988 8.11334,-6.32733 2.03199,-0.69112 2.26675,-0.64998 3.12408,0.54741 0.39728,0.5549 1.15403,1.43409 1.68164,1.95377 l 0.9593,0.94488 -2.78125,1.37774 c -6.29618,3.11891 -10.69899,6.88984 -12.75378,10.9234 -0.31549,0.61932 -0.61564,1.05215 -0.667,0.96185 z m 10.16242,-11.47727 c -1.60603,-1.00044 -1.6127,-2.14473 -0.0173,-2.97305 0.83067,-0.43127 0.2495,-0.54086 -0.78108,-0.14728 -2.50274,0.9558 -1.97481,3.20652 0.78154,3.33197 0.37501,0.0171 0.37544,0.0117 0.0169,-0.21164 z m 0.94498,-2.24904 c 0,-0.30038 -0.12427,-0.4996 -0.33723,-0.54061 -0.3808,-0.0733 -0.62844,0.38729 -0.45342,0.84338 0.18347,0.47812 0.79065,0.24561 0.79065,-0.30277 z m -23.79,12.02317 c -0.95439,-1.88112 -1.46707,-3.5651 -1.68794,-5.54423 -0.42649,-3.82166 0.59276,-7.34633 3.07135,-10.62101 l 0.98267,-1.29828 -0.23513,-0.98012 c -0.12932,-0.53905 -0.24325,-1.67392 -0.25317,-2.52192 l -0.018,-1.54182 2.11607,3e-5 c 1.70292,2e-5 2.36753,0.0861 3.40387,0.44088 1.27323,0.43586 1.30149,0.43704 2.50082,0.10354 1.87831,-0.5223 6.55849,-0.48279 8.23457,0.0695 1.84079,0.60658 3.01248,1.16547 4.52071,2.15637 l 1.3466,0.88471 -2.01989,0.12087 c -2.42179,0.14493 -3.99106,0.42177 -6.01494,1.06111 l -1.51123,0.47739 0.41111,0.69679 c 0.44281,0.75051 0.33085,0.70752 -0.76993,-0.29564 -0.90258,-0.82253 -3.8405,-2.74977 -5.04983,-3.31263 -1.43779,-0.66919 -3.03975,-1.1032 -4.69983,-1.27327 l -1.21769,-0.12476 0.003,0.74796 c 0.01,2.50081 1.96163,6.80189 4.38992,9.67223 0.89967,1.06346 0.73541,1.10424 -0.62013,0.15395 l -0.55571,-0.38957 -0.67569,0.7535 c -2.3294,2.59764 -4.1783,6.94057 -4.90704,11.52625 -0.0428,0.26911 -0.26649,-0.02 -0.74433,-0.96185 z m 26.48319,-2.5815 c -0.66281,-0.10531 -0.55092,-0.13891 0.80707,-0.24235 2.30832,-0.17581 4.53921,-1.30889 5.65089,-2.87011 l 0.40559,-0.56958 -0.70056,-0.77543 c -0.62622,-0.69315 -0.69438,-0.87115 -0.64239,-1.6775 0.0665,-1.03124 -0.0263,-1.0104 2.07804,-0.46693 1.68188,0.43436 1.70487,0.50607 0.79025,2.46421 -1.46417,3.13473 -4.68939,4.72551 -8.38889,4.13769 z"
       id="path12-7-8-5-3" />
    <text
       xml:space="preserve"
       style="font-style:normal;font-variant:normal;font-weight:normal;font-stretch:normal;font-size:18.4676px;line-height:1.25;font-family:Dyuthi;-inkscape-font-specification:Dyuthi;fill:#000000;fill-opacity:1;stroke:none;stroke-width:0.192371"
       x="302.64752"
       y="265.33981"
       id="text8901-9-5-1"><tspan
         sodipodi:role="line"
         style="font-style:normal;font-variant:normal;font-weight:normal;font-stretch:normal;font-size:18.4676px;font-family:Dyuthi;-inkscape-font-specification:Dyuthi;fill:#000000;stroke-width:0.192371"
         x="302.64752"
         y="265.33981"
         id="tspan20583-7-4-4">E-NOT</tspan></text>
    <text
       xml:space="preserve"
       style="font-style:normal;font-weight:normal;font-size:7.69481px;line-height:1.25;font-family:sans-serif;fill:#000000;fill-opacity:1;stroke:none;stroke-width:0.192371"
       x="329.93439"
       y="253.03058"
       id="text24097-3-7-9"><tspan
         sodipodi:role="line"
         id="tspan24095-6-6-2"
         style="font-style:normal;font-variant:normal;font-weight:normal;font-stretch:normal;font-family:Dyuthi;-inkscape-font-specification:Dyuthi;fill:#000000;stroke-width:0.192371"
         x="329.93439"
         y="253.03058">Project</tspan></text>
    <circle
       style="fill:#ffffff;fill-opacity:1;stroke-width:0.192371"
       id="path245-6-2-1-0"
       cx="-160.10716"
       cy="317.90469"
       r="22.537024" />
    <path
       style="fill:#000000;fill-opacity:1;stroke-width:0.192371"
       d="m -163.32056,328.82404 c -0.18943,-0.33307 -0.16257,-2.89838 0.0441,-4.2041 0.39154,-2.47462 1.11224,-4.42763 2.27963,-6.17762 2.04481,-3.0653 4.7691,-5.18988 8.11334,-6.32733 2.03199,-0.69112 2.26675,-0.64998 3.12408,0.54741 0.39728,0.5549 1.15403,1.43409 1.68164,1.95377 l 0.9593,0.94488 -2.78125,1.37774 c -6.29618,3.11891 -10.69899,6.88984 -12.75378,10.9234 -0.31549,0.61932 -0.61564,1.05215 -0.667,0.96185 z m 10.16242,-11.47727 c -1.60604,-1.00044 -1.6127,-2.14473 -0.0173,-2.97305 0.83067,-0.43127 0.24951,-0.54086 -0.78108,-0.14728 -2.50273,0.9558 -1.9748,3.20652 0.78154,3.33197 0.37502,0.0171 0.37544,0.0117 0.0169,-0.21164 z m 0.94497,-2.24904 c 0,-0.30038 -0.12427,-0.4996 -0.33723,-0.54061 -0.3808,-0.0733 -0.62844,0.38729 -0.45342,0.84338 0.18347,0.47812 0.79065,0.24561 0.79065,-0.30277 z m -23.79,12.02317 c -0.95438,-1.88112 -1.46707,-3.5651 -1.68794,-5.54423 -0.42649,-3.82166 0.59276,-7.34633 3.07135,-10.62101 l 0.98268,-1.29828 -0.23513,-0.98012 c -0.12932,-0.53905 -0.24325,-1.67392 -0.25318,-2.52192 l -0.018,-1.54182 2.11608,3e-5 c 1.70292,2e-5 2.36752,0.0861 3.40387,0.44088 1.27323,0.43586 1.30149,0.43704 2.50082,0.10354 1.87831,-0.5223 6.55849,-0.48279 8.23457,0.0695 1.84079,0.60658 3.01248,1.16547 4.52071,2.15637 l 1.3466,0.88471 -2.01989,0.12087 c -2.42179,0.14493 -3.99106,0.42177 -6.01494,1.06111 l -1.51123,0.47739 0.41111,0.69679 c 0.44281,0.75051 0.33085,0.70752 -0.76993,-0.29564 -0.90258,-0.82253 -3.8405,-2.74977 -5.04983,-3.31263 -1.43779,-0.66919 -3.03975,-1.1032 -4.69983,-1.27327 l -1.21769,-0.12476 0.003,0.74796 c 0.01,2.50081 1.96164,6.80189 4.38992,9.67223 0.89967,1.06346 0.73541,1.10424 -0.62013,0.15395 l -0.55571,-0.38957 -0.67569,0.7535 c -2.3294,2.59764 -4.1783,6.94057 -4.90704,11.52625 -0.0428,0.26911 -0.26649,-0.02 -0.74432,-0.96185 z m 26.4832,-2.5815 c -0.66282,-0.10531 -0.55092,-0.13891 0.80707,-0.24235 2.30832,-0.17581 4.53921,-1.30889 5.65089,-2.87011 l 0.40559,-0.56958 -0.70056,-0.77543 c -0.62622,-0.69315 -0.69438,-0.87115 -0.64239,-1.6775 0.0665,-1.03124 -0.0263,-1.0104 2.07803,-0.46693 1.68188,0.43436 1.70487,0.50607 0.79025,2.46421 -1.46417,3.13473 -4.68939,4.72551 -8.38888,4.13769 z"
       id="path12-7-8-5-6" />
    <text
       xml:space="preserve"
       style="font-style:normal;font-variant:normal;font-weight:normal;font-stretch:normal;font-size:18.4676px;line-height:1.25;font-family:Dyuthi;-inkscape-font-specification:Dyuthi;fill:#000000;fill-opacity:1;stroke:none;stroke-width:0.192371"
       x="-127.02961"
       y="323.1922"
       id="text8901-9-5-8"><tspan
         sodipodi:role="line"
         style="font-style:normal;font-variant:normal;font-weight:normal;font-stretch:normal;font-size:18.4676px;font-family:Dyuthi;-inkscape-font-specification:Dyuthi;fill:#000000;stroke-width:0.192371"
         x="-127.02961"
         y="323.1922"
         id="tspan20583-7-4-9">E-NOT</tspan></text>
    <text
       xml:space="preserve"
       style="font-style:normal;font-weight:normal;font-size:7.69481px;line-height:1.25;font-family:sans-serif;fill:#000000;fill-opacity:1;stroke:none;stroke-width:0.192371"
       x="-99.742706"
       y="310.88297"
       id="text24097-3-7-2"><tspan
         sodipodi:role="line"
         id="tspan24095-6-6-6"
         style="font-style:normal;font-variant:normal;font-weight:normal;font-stretch:normal;font-family:Dyuthi;-inkscape-font-specification:Dyuthi;fill:#000000;stroke-width:0.192371"
         x="-99.742706"
         y="310.88297">Project</tspan></text>
    <circle
       style="fill:#ffffff;fill-opacity:1;stroke-width:0.192371"
       id="path245-6-2-1-0-6"
       cx="65.496941"
       cy="315.47739"
       r="22.537024" />
    <path
       style="fill:#000000;fill-opacity:1;stroke-width:0.192371"
       d="m 62.283543,326.39671 c -0.18943,-0.33307 -0.16257,-2.89838 0.0441,-4.2041 0.39154,-2.47462 1.11224,-4.42763 2.27963,-6.17762 2.04481,-3.0653 4.7691,-5.18988 8.11334,-6.32733 2.03199,-0.69112 2.26675,-0.64998 3.12408,0.54741 0.39728,0.5549 1.15403,1.43409 1.68164,1.95377 l 0.9593,0.94488 -2.78125,1.37774 c -6.29618,3.11891 -10.69899,6.88984 -12.75378,10.9234 -0.31549,0.61932 -0.61564,1.05215 -0.667,0.96185 z m 10.16242,-11.47727 c -1.60604,-1.00044 -1.6127,-2.14473 -0.0173,-2.97305 0.83067,-0.43127 0.24951,-0.54086 -0.78108,-0.14728 -2.50273,0.9558 -1.9748,3.20652 0.78154,3.33197 0.37502,0.0171 0.37544,0.0117 0.0169,-0.21164 z m 0.94497,-2.24904 c 0,-0.30038 -0.12427,-0.4996 -0.33723,-0.54061 -0.3808,-0.0733 -0.62844,0.38729 -0.45342,0.84338 0.18347,0.47812 0.79065,0.24561 0.79065,-0.30277 z m -23.79,12.02317 c -0.95438,-1.88112 -1.46707,-3.5651 -1.68794,-5.54423 -0.42649,-3.82166 0.59276,-7.34633 3.07135,-10.62101 l 0.98268,-1.29828 -0.23513,-0.98012 c -0.12932,-0.53905 -0.24325,-1.67392 -0.25318,-2.52192 l -0.018,-1.54182 2.11608,3e-5 c 1.70292,2e-5 2.36752,0.0861 3.40387,0.44088 1.27323,0.43586 1.30149,0.43704 2.50082,0.10354 1.87831,-0.5223 6.55849,-0.48279 8.23457,0.0695 1.84079,0.60658 3.01248,1.16547 4.52071,2.15637 l 1.3466,0.88471 -2.01989,0.12087 c -2.42179,0.14493 -3.99106,0.42177 -6.01494,1.06111 l -1.51123,0.47739 0.41111,0.69679 c 0.44281,0.75051 0.33085,0.70752 -0.76993,-0.29564 -0.90258,-0.82253 -3.8405,-2.74977 -5.04983,-3.31263 -1.43779,-0.66919 -3.03975,-1.1032 -4.69983,-1.27327 l -1.21769,-0.12476 0.003,0.74796 c 0.01,2.50081 1.96164,6.80189 4.38992,9.67223 0.89967,1.06346 0.73541,1.10424 -0.62013,0.15395 l -0.55571,-0.38957 -0.67569,0.7535 c -2.3294,2.59764 -4.1783,6.94057 -4.90704,11.52625 -0.0428,0.26911 -0.26649,-0.02 -0.74432,-0.96185 z m 26.4832,-2.5815 c -0.66282,-0.10531 -0.55092,-0.13891 0.80707,-0.24235 2.30832,-0.17581 4.53921,-1.30889 5.65089,-2.87011 l 0.40559,-0.56958 -0.70056,-0.77543 c -0.62622,-0.69315 -0.69438,-0.87115 -0.64239,-1.6775 0.0665,-1.03124 -0.0263,-1.0104 2.07803,-0.46693 1.68188,0.43436 1.70487,0.50607 0.79025,2.46421 -1.46417,3.13473 -4.68939,4.72551 -8.38888,4.13769 z"
       id="path12-7-8-5-6-4" />
    <text
       xml:space="preserve"
       style="font-style:normal;font-variant:normal;font-weight:normal;font-stretch:normal;font-size:18.4676px;line-height:1.25;font-family:Dyuthi;-inkscape-font-specification:Dyuthi;fill:#000000;fill-opacity:1;stroke:none;stroke-width:0.192371"
       x="98.574493"
       y="320.76489"
       id="text8901-9-5-8-9"><tspan
         sodipodi:role="line"
         style="font-style:normal;font-variant:normal;font-weight:normal;font-stretch:normal;font-size:18.4676px;font-family:Dyuthi;-inkscape-font-specification:Dyuthi;fill:#000000;stroke-width:0.192371"
         x="98.574493"
         y="320.76489"
         id="tspan20583-7-4-9-5">E-NOT</tspan></text>
    <text
       xml:space="preserve"
       style="font-style:normal;font-weight:normal;font-size:7.69481px;line-height:1.25;font-family:sans-serif;fill:#000000;fill-opacity:1;stroke:none;stroke-width:0.192371"
       x="125.8614"
       y="308.45566"
       id="text24097-3-7-2-0"><tspan
         sodipodi:role="line"
         id="tspan24095-6-6-6-4"
         style="font-style:normal;font-variant:normal;font-weight:normal;font-stretch:normal;font-family:Dyuthi;-inkscape-font-specification:Dyuthi;fill:#000000;stroke-width:0.192371"
         x="125.8614"
         y="308.45566">Project</tspan></text>
    <circle
       style="fill:#ffffff;fill-opacity:1;stroke-width:0.192371"
       id="path245-6-2-1-0-8"
       cx="272.10938"
       cy="317.29065"
       r="22.537024" />
    <path
       style="fill:#000000;fill-opacity:1;stroke-width:0.192371"
       d="m 268.89597,328.20998 c -0.18943,-0.33307 -0.16257,-2.89837 0.0441,-4.20409 0.39154,-2.47463 1.11224,-4.42763 2.27963,-6.17762 2.04481,-3.0653 4.7691,-5.18989 8.11334,-6.32733 2.03199,-0.69113 2.26675,-0.64998 3.12408,0.54741 0.39728,0.5549 1.15403,1.43409 1.68164,1.95377 l 0.9593,0.94488 -2.78125,1.37774 c -6.29618,3.11891 -10.69899,6.88984 -12.75378,10.9234 -0.31549,0.61932 -0.61564,1.05215 -0.667,0.96185 z m 10.16242,-11.47726 c -1.60604,-1.00045 -1.6127,-2.14473 -0.0173,-2.97305 0.83067,-0.43127 0.24951,-0.54087 -0.78108,-0.14728 -2.50273,0.95579 -1.9748,3.20651 0.78154,3.33196 0.37502,0.0171 0.37544,0.0117 0.0169,-0.21163 z m 0.94497,-2.24904 c 0,-0.30038 -0.12427,-0.4996 -0.33723,-0.54061 -0.3808,-0.0733 -0.62844,0.38729 -0.45342,0.84338 0.18347,0.47812 0.79065,0.24561 0.79065,-0.30277 z m -23.79,12.02317 c -0.95438,-1.88112 -1.46707,-3.5651 -1.68794,-5.54423 -0.42649,-3.82167 0.59276,-7.34634 3.07135,-10.62102 l 0.98268,-1.29827 -0.23513,-0.98012 c -0.12932,-0.53905 -0.24325,-1.67393 -0.25318,-2.52192 l -0.018,-1.54182 2.11608,3e-5 c 1.70292,10e-6 2.36752,0.0861 3.40387,0.44088 1.27323,0.43585 1.30149,0.43704 2.50082,0.10353 1.87831,-0.52229 6.55849,-0.48279 8.23457,0.0695 1.84079,0.60658 3.01248,1.16547 4.52071,2.15636 l 1.3466,0.88472 -2.01989,0.12086 c -2.42179,0.14494 -3.99106,0.42178 -6.01494,1.06111 l -1.51123,0.47739 0.41111,0.6968 c 0.44281,0.75051 0.33085,0.70751 -0.76993,-0.29564 -0.90258,-0.82253 -3.8405,-2.74977 -5.04983,-3.31263 -1.43779,-0.66919 -3.03975,-1.10321 -4.69983,-1.27328 l -1.21769,-0.12475 0.003,0.74795 c 0.01,2.50081 1.96164,6.8019 4.38992,9.67223 0.89967,1.06347 0.73541,1.10424 -0.62013,0.15395 l -0.55571,-0.38956 -0.67569,0.75349 c -2.3294,2.59765 -4.1783,6.94057 -4.90704,11.52625 -0.0428,0.26912 -0.26649,-0.02 -0.74432,-0.96185 z m 26.4832,-2.5815 c -0.66282,-0.10531 -0.55092,-0.13891 0.80707,-0.24235 2.30832,-0.17581 4.53921,-1.30889 5.65089,-2.87011 l 0.40559,-0.56958 -0.70056,-0.77543 c -0.62622,-0.69315 -0.69438,-0.87115 -0.64239,-1.6775 0.0665,-1.03124 -0.0263,-1.0104 2.07803,-0.46693 1.68188,0.43436 1.70487,0.50607 0.79025,2.46421 -1.46417,3.13473 -4.68939,4.72551 -8.38888,4.13769 z"
       id="path12-7-8-5-6-7" />
    <text
       xml:space="preserve"
       style="font-style:normal;font-variant:normal;font-weight:normal;font-stretch:normal;font-size:18.4676px;line-height:1.25;font-family:Dyuthi;-inkscape-font-specification:Dyuthi;fill:#000000;fill-opacity:1;stroke:none;stroke-width:0.192371"
       x="305.18692"
       y="322.57816"
       id="text8901-9-5-8-1"><tspan
         sodipodi:role="line"
         style="font-style:normal;font-variant:normal;font-weight:normal;font-stretch:normal;font-size:18.4676px;font-family:Dyuthi;-inkscape-font-specification:Dyuthi;fill:#000000;stroke-width:0.192371"
         x="305.18692"
         y="322.57816"
         id="tspan20583-7-4-9-7">E-NOT</tspan></text>
    <text
       xml:space="preserve"
       style="font-style:normal;font-weight:normal;font-size:7.69481px;line-height:1.25;font-family:sans-serif;fill:#000000;fill-opacity:1;stroke:none;stroke-width:0.192371"
       x="332.47382"
       y="310.26892"
       id="text24097-3-7-2-2"><tspan
         sodipodi:role="line"
         id="tspan24095-6-6-6-7"
         style="font-style:normal;font-variant:normal;font-weight:normal;font-stretch:normal;font-family:Dyuthi;-inkscape-font-specification:Dyuthi;fill:#000000;stroke-width:0.192371"
         x="332.47382"
         y="310.26892">Project</tspan></text>
    <rect
       style="fill:#5fd35f;fill-opacity:1;stroke-width:0.165739"
       id="rect999-1-2"
       width="148.35789"
       height="54.028442"
       x="-186.97527"
       y="348.67236" />
    <circle
       style="fill:#ffffff;fill-opacity:1;stroke-width:0.192371"
       id="path245-6-3-2"
       cx="-159.50711"
       cy="376.89218"
       r="22.537024" />
    <path
       style="fill:#000000;fill-opacity:1;stroke-width:0.192371"
       d="m -162.72049,387.81154 c -0.18943,-0.33308 -0.16256,-2.89838 0.044,-4.20411 0.39155,-2.47461 1.11224,-4.42762 2.27963,-6.17762 2.04481,-3.0653 4.7691,-5.18987 8.11334,-6.32732 2.03198,-0.69113 2.26675,-0.64999 3.12408,0.54741 0.39728,0.55489 1.15402,1.43409 1.68164,1.95377 l 0.9593,0.94487 -2.78125,1.37774 c -6.29618,3.11892 -10.69899,6.88985 -12.75378,10.9234 -0.3155,0.61932 -0.61565,1.05215 -0.667,0.96186 z m 10.16242,-11.47728 c -1.60603,-1.00043 -1.6127,-2.14473 -0.0173,-2.97304 0.83066,-0.43128 0.24949,-0.54087 -0.78108,-0.14728 -2.50274,0.9558 -1.97482,3.20652 0.78154,3.33197 0.37501,0.0171 0.37544,0.0117 0.0169,-0.21165 z m 0.94498,-2.24904 c 0,-0.30037 -0.12428,-0.49959 -0.33723,-0.5406 -0.3808,-0.0733 -0.62844,0.38728 -0.45342,0.84338 0.18347,0.47811 0.79065,0.2456 0.79065,-0.30278 z m -23.79,12.02318 c -0.95438,-1.88112 -1.46707,-3.56511 -1.68794,-5.54424 -0.4265,-3.82165 0.59276,-7.34633 3.07135,-10.621 l 0.98267,-1.29829 -0.23513,-0.98011 c -0.12932,-0.53906 -0.24324,-1.67393 -0.25317,-2.52193 l -0.018,-1.54181 2.11608,2e-5 c 1.70291,3e-5 2.36751,0.0861 3.40386,0.44089 1.27323,0.43586 1.3015,0.43703 2.50082,0.10354 1.87831,-0.5223 6.55849,-0.48279 8.23457,0.0695 1.84079,0.60658 3.01248,1.16547 4.52071,2.15636 l 1.3466,0.88471 -2.01989,0.12088 c -2.42179,0.14492 -3.99106,0.42176 -6.01494,1.0611 l -1.51123,0.4774 0.41111,0.69679 c 0.44281,0.7505 0.33085,0.70752 -0.76993,-0.29564 -0.90258,-0.82253 -3.8405,-2.74978 -5.04983,-3.31263 -1.43779,-0.6692 -3.03975,-1.1032 -4.69983,-1.27328 l -1.21769,-0.12476 0.003,0.74796 c 0.01,2.50081 1.96163,6.8019 4.38992,9.67224 0.89967,1.06346 0.73541,1.10423 -0.62013,0.15395 l -0.55571,-0.38957 -0.67569,0.7535 c -2.3294,2.59764 -4.1783,6.94056 -4.90704,11.52625 -0.0428,0.2691 -0.26649,-0.02 -0.74433,-0.96185 z m 26.48319,-2.5815 c -0.66281,-0.10532 -0.55092,-0.13891 0.80707,-0.24235 2.30832,-0.17581 4.53921,-1.3089 5.65089,-2.87012 l 0.40558,-0.56958 -0.70055,-0.77543 c -0.62622,-0.69314 -0.69438,-0.87114 -0.64239,-1.6775 0.0664,-1.03124 -0.0263,-1.01039 2.07804,-0.46693 1.68188,0.43436 1.70487,0.50607 0.79025,2.46422 -1.46418,3.13472 -4.6894,4.72551 -8.38889,4.13769 z"
       id="path12-7-1-6" />
    <text
       xml:space="preserve"
       style="font-style:normal;font-variant:normal;font-weight:normal;font-stretch:normal;font-size:18.4676px;line-height:1.25;font-family:Dyuthi;-inkscape-font-specification:Dyuthi;fill:#000000;fill-opacity:1;stroke:none;stroke-width:0.192371"
       x="-116.46458"
       y="380.62546"
       id="text8901-94-1"><tspan
         sodipodi:role="line"
         style="font-style:normal;font-variant:normal;font-weight:normal;font-stretch:normal;font-size:18.4676px;font-family:Dyuthi;-inkscape-font-specification:Dyuthi;fill:#000000;stroke-width:0.192371"
         x="-116.46458"
         y="380.62546"
         id="tspan20583-78-0">E-NOT</tspan></text>
    <text
       xml:space="preserve"
       style="font-style:normal;font-weight:normal;font-size:7.69481px;line-height:1.25;font-family:sans-serif;fill:#000000;fill-opacity:1;stroke:none;stroke-width:0.192371"
       x="-89.177696"
       y="368.31622"
       id="text24097-4-6"><tspan
         sodipodi:role="line"
         id="tspan24095-5-1"
         style="font-style:normal;font-variant:normal;font-weight:normal;font-stretch:normal;font-family:Dyuthi;-inkscape-font-specification:Dyuthi;fill:#000000;stroke-width:0.192371"
         x="-89.177696"
         y="368.31622">Project</tspan></text>
    <rect
       style="fill:#f6ff57;fill-opacity:1;stroke-width:0.165739"
       id="rect999-1-2-5"
       width="148.35789"
       height="54.028442"
       x="35.779278"
       y="348.16812" />
    <circle
       style="fill:#ffffff;fill-opacity:1;stroke-width:0.192371"
       id="path245-6-3-2-9"
       cx="63.247433"
       cy="376.38794"
       r="22.537024" />
    <path
       style="fill:#000000;fill-opacity:1;stroke-width:0.192371"
       d="m 60.034059,387.3073 c -0.18943,-0.33308 -0.16256,-2.89838 0.044,-4.20411 0.39155,-2.47461 1.11224,-4.42762 2.27963,-6.17762 2.04481,-3.0653 4.7691,-5.18987 8.11334,-6.32732 2.03198,-0.69113 2.26675,-0.64999 3.12408,0.54741 0.39728,0.55489 1.15402,1.43409 1.68164,1.95377 l 0.9593,0.94487 -2.78125,1.37774 c -6.29618,3.11892 -10.69899,6.88985 -12.75378,10.9234 -0.3155,0.61932 -0.61565,1.05215 -0.667,0.96186 z m 10.16242,-11.47728 c -1.60603,-1.00043 -1.6127,-2.14473 -0.0173,-2.97304 0.83066,-0.43128 0.24949,-0.54087 -0.78108,-0.14728 -2.50274,0.9558 -1.97482,3.20652 0.78154,3.33197 0.37501,0.0171 0.37544,0.0117 0.0169,-0.21165 z m 0.94498,-2.24904 c 0,-0.30037 -0.12428,-0.49959 -0.33723,-0.5406 -0.3808,-0.0733 -0.62844,0.38728 -0.45342,0.84338 0.18347,0.47811 0.79065,0.2456 0.79065,-0.30278 z m -23.79,12.02318 c -0.95438,-1.88112 -1.46707,-3.56511 -1.68794,-5.54424 -0.4265,-3.82165 0.59276,-7.34633 3.07135,-10.621 l 0.98267,-1.29829 -0.23513,-0.98011 c -0.12932,-0.53906 -0.24324,-1.67393 -0.25317,-2.52193 l -0.018,-1.54181 2.11608,2e-5 c 1.70291,3e-5 2.36751,0.0861 3.40386,0.44089 1.27323,0.43586 1.3015,0.43703 2.50082,0.10354 1.87831,-0.5223 6.55849,-0.48279 8.23457,0.0695 1.84079,0.60658 3.01248,1.16547 4.52071,2.15636 l 1.3466,0.88471 -2.01989,0.12088 c -2.42179,0.14492 -3.99106,0.42176 -6.01494,1.0611 l -1.51123,0.4774 0.41111,0.69679 c 0.44281,0.7505 0.33085,0.70752 -0.76993,-0.29564 -0.90258,-0.82253 -3.8405,-2.74978 -5.04983,-3.31263 -1.43779,-0.6692 -3.03975,-1.1032 -4.69983,-1.27328 l -1.21769,-0.12476 0.003,0.74796 c 0.01,2.50081 1.96163,6.8019 4.38992,9.67224 0.89967,1.06346 0.73541,1.10423 -0.62013,0.15395 l -0.55571,-0.38957 -0.67569,0.7535 c -2.3294,2.59764 -4.1783,6.94056 -4.90704,11.52625 -0.0428,0.2691 -0.26649,-0.02 -0.74433,-0.96185 z m 26.48319,-2.5815 c -0.66281,-0.10532 -0.55092,-0.13891 0.80707,-0.24235 2.30832,-0.17581 4.53921,-1.3089 5.65089,-2.87012 l 0.40558,-0.56958 -0.70055,-0.77543 c -0.62622,-0.69314 -0.69438,-0.87114 -0.64239,-1.6775 0.0664,-1.03124 -0.0263,-1.01039 2.07804,-0.46693 1.68188,0.43436 1.70487,0.50607 0.79025,2.46422 -1.46418,3.13472 -4.6894,4.72551 -8.38889,4.13769 z"
       id="path12-7-1-6-4" />
    <text
       xml:space="preserve"
       style="font-style:normal;font-variant:normal;font-weight:normal;font-stretch:normal;font-size:18.4676px;line-height:1.25;font-family:Dyuthi;-inkscape-font-specification:Dyuthi;fill:#000000;fill-opacity:1;stroke:none;stroke-width:0.192371"
       x="106.28996"
       y="380.12122"
       id="text8901-94-1-9"><tspan
         sodipodi:role="line"
         style="font-style:normal;font-variant:normal;font-weight:normal;font-stretch:normal;font-size:18.4676px;font-family:Dyuthi;-inkscape-font-specification:Dyuthi;fill:#000000;stroke-width:0.192371"
         x="106.28996"
         y="380.12122"
         id="tspan20583-78-0-0">E-NOT</tspan></text>
    <text
       xml:space="preserve"
       style="font-style:normal;font-weight:normal;font-size:7.69481px;line-height:1.25;font-family:sans-serif;fill:#000000;fill-opacity:1;stroke:none;stroke-width:0.192371"
       x="133.57686"
       y="367.81198"
       id="text24097-4-6-9"><tspan
         sodipodi:role="line"
         id="tspan24095-5-1-1"
         style="font-style:normal;font-variant:normal;font-weight:normal;font-stretch:normal;font-family:Dyuthi;-inkscape-font-specification:Dyuthi;fill:#000000;stroke-width:0.192371"
         x="133.57686"
         y="367.81198">Project</tspan></text>
    <rect
       style="fill:#b380ff;fill-opacity:1;stroke-width:0.165739"
       id="rect999-1-2-7"
       width="148.35789"
       height="54.028442"
       x="240.29271"
       y="348.03439" />
    <circle
       style="fill:#ffffff;fill-opacity:1;stroke-width:0.192371"
       id="path245-6-3-2-7"
       cx="267.76086"
       cy="376.25421"
       r="22.537024" />
    <path
       style="fill:#000000;fill-opacity:1;stroke-width:0.192371"
       d="m 264.54751,387.17357 c -0.18943,-0.33308 -0.16256,-2.89838 0.044,-4.20411 0.39155,-2.47461 1.11224,-4.42762 2.27963,-6.17762 2.04481,-3.0653 4.7691,-5.18987 8.11334,-6.32732 2.03198,-0.69113 2.26675,-0.64999 3.12408,0.54741 0.39728,0.55489 1.15402,1.43409 1.68164,1.95377 l 0.9593,0.94487 -2.78125,1.37774 c -6.29618,3.11892 -10.69899,6.88985 -12.75378,10.9234 -0.3155,0.61932 -0.61565,1.05215 -0.667,0.96186 z m 10.16242,-11.47728 c -1.60603,-1.00043 -1.6127,-2.14473 -0.0173,-2.97304 0.83066,-0.43128 0.24949,-0.54087 -0.78108,-0.14728 -2.50274,0.9558 -1.97482,3.20652 0.78154,3.33197 0.37501,0.0171 0.37544,0.0117 0.0169,-0.21165 z m 0.94498,-2.24904 c 0,-0.30037 -0.12428,-0.49959 -0.33723,-0.5406 -0.3808,-0.0733 -0.62844,0.38728 -0.45342,0.84338 0.18347,0.47811 0.79065,0.2456 0.79065,-0.30278 z m -23.79,12.02318 c -0.95438,-1.88112 -1.46707,-3.56511 -1.68794,-5.54424 -0.4265,-3.82165 0.59276,-7.34633 3.07135,-10.621 l 0.98267,-1.29829 -0.23513,-0.98011 c -0.12932,-0.53906 -0.24324,-1.67393 -0.25317,-2.52193 l -0.018,-1.54181 2.11608,2e-5 c 1.70291,3e-5 2.36751,0.0861 3.40386,0.44089 1.27323,0.43586 1.3015,0.43703 2.50082,0.10354 1.87831,-0.5223 6.55849,-0.48279 8.23457,0.0695 1.84079,0.60658 3.01248,1.16547 4.52071,2.15636 l 1.3466,0.88471 -2.01989,0.12088 c -2.42179,0.14492 -3.99106,0.42176 -6.01494,1.0611 l -1.51123,0.4774 0.41111,0.69679 c 0.44281,0.7505 0.33085,0.70752 -0.76993,-0.29564 -0.90258,-0.82253 -3.8405,-2.74978 -5.04983,-3.31263 -1.43779,-0.6692 -3.03975,-1.1032 -4.69983,-1.27328 l -1.21769,-0.12476 0.003,0.74796 c 0.01,2.50081 1.96163,6.8019 4.38992,9.67224 0.89967,1.06346 0.73541,1.10423 -0.62013,0.15395 l -0.55571,-0.38957 -0.67569,0.7535 c -2.3294,2.59764 -4.1783,6.94056 -4.90704,11.52625 -0.0428,0.2691 -0.26649,-0.02 -0.74433,-0.96185 z m 26.48319,-2.5815 c -0.66281,-0.10532 -0.55092,-0.13891 0.80707,-0.24235 2.30832,-0.17581 4.53921,-1.3089 5.65089,-2.87012 l 0.40558,-0.56958 -0.70055,-0.77543 c -0.62622,-0.69314 -0.69438,-0.87114 -0.64239,-1.6775 0.0664,-1.03124 -0.0263,-1.01039 2.07804,-0.46693 1.68188,0.43436 1.70487,0.50607 0.79025,2.46422 -1.46418,3.13472 -4.6894,4.72551 -8.38889,4.13769 z"
       id="path12-7-1-6-1" />
    <text
       xml:space="preserve"
       style="font-style:normal;font-variant:normal;font-weight:normal;font-stretch:normal;font-size:18.4676px;line-height:1.25;font-family:Dyuthi;-inkscape-font-specification:Dyuthi;fill:#000000;fill-opacity:1;stroke:none;stroke-width:0.192371"
       x="310.80341"
       y="379.98749"
       id="text8901-94-1-1"><tspan
         sodipodi:role="line"
         style="font-style:normal;font-variant:normal;font-weight:normal;font-stretch:normal;font-size:18.4676px;font-family:Dyuthi;-inkscape-font-specification:Dyuthi;fill:#000000;stroke-width:0.192371"
         x="310.80341"
         y="379.98749"
         id="tspan20583-78-0-5">E-NOT</tspan></text>
    <text
       xml:space="preserve"
       style="font-style:normal;font-weight:normal;font-size:7.69481px;line-height:1.25;font-family:sans-serif;fill:#000000;fill-opacity:1;stroke:none;stroke-width:0.192371"
       x="338.0903"
       y="367.67825"
       id="text24097-4-6-97"><tspan
         sodipodi:role="line"
         id="tspan24095-5-1-7"
         style="font-style:normal;font-variant:normal;font-weight:normal;font-stretch:normal;font-family:Dyuthi;-inkscape-font-specification:Dyuthi;fill:#000000;stroke-width:0.192371"
         x="338.0903"
         y="367.67825">Project</tspan></text>
  </g>
</svg>
